<svg width="18" height="19" viewBox="0 0 18 19" fill="none" xmlns="http://www.w3.org/2000/svg">
<path d="M8.93273 0.118591L0 4.64559V13.8859L6.9044 17.4643L6.87001 15.9613L1.38594 13.1038V6.23859L8.22155 9.67479V17.7586L8.94284 18.1186L9.68741 17.7577V9.67569L16.5129 6.23859V13.1038L11.0622 15.901V17.404L18 13.9534V4.64469L8.93273 0.118591ZM8.93273 8.59209L2.26404 5.09649L8.9307 1.60719L15.7592 5.09649L8.9307 8.59209H8.93273ZM3.7916 11.9824L5.12696 11.3056L5.01366 11.1292L3.6783 11.806L3.7916 11.9824ZM6.1305 10.7926L7.46586 10.1158L7.35154 9.93939L6.01619 10.6162L6.1305 10.7926ZM9.03187 7.61829V6.25749H8.80324V7.61829H9.03187ZM9.03187 5.24589V3.87789H8.80324V5.24589H9.03187ZM9.03187 2.96529V1.59729H8.80324V2.96529H9.03187ZM11.9191 10.6243L10.5938 9.94029L10.4785 10.1158L11.8048 10.7998L11.9201 10.6234L11.9191 10.6243ZM14.2327 11.8141L12.8973 11.1301L12.783 11.3056L14.1184 11.9896L14.2327 11.8141ZM1.43146 13.1821L2.75771 12.5062L2.64441 12.3298L1.31816 13.0057L1.43146 13.1821ZM16.5847 13.0039L15.2585 12.3199L15.1431 12.4954L16.4694 13.1794L16.5847 13.0039Z" fill="#718096"/>
</svg>
