<svg width="19" height="20" viewBox="0 0 19 20" fill="none" xmlns="http://www.w3.org/2000/svg">
<g clip-path="url(#clip0_5_552)">
<path d="M9.3236 18.8043C14.1206 18.8043 18.0093 14.9156 18.0093 10.1186C18.0093 5.32163 14.1206 1.43293 9.3236 1.43293C4.52664 1.43293 0.637939 5.32163 0.637939 10.1186C0.637939 14.9156 4.52664 18.8043 9.3236 18.8043Z" stroke="#707070" stroke-width="1.15809" stroke-miterlimit="10" stroke-linejoin="round"/>
<path d="M7.58633 5.2035C5.56199 5.9192 4.11206 7.84916 4.11206 10.1184C4.11206 12.9969 6.44503 15.3298 9.32346 15.3298C12.2019 15.3298 14.5349 12.9969 14.5349 10.1184C14.5349 7.84916 13.0849 5.9192 11.0606 5.2035" stroke="#707070" stroke-width="1.15809" stroke-miterlimit="10" stroke-linejoin="round"/>
<path d="M9.32349 3.17006V10.1186" stroke="#707070" stroke-width="1.15809" stroke-miterlimit="10" stroke-linejoin="round"/>
</g>
<defs>
<clipPath id="clip0_5_552">
<rect width="18.5294" height="18.5294" fill="white" transform="translate(0.0588379 0.853884)"/>
</clipPath>
</defs>
</svg>
