<svg width="18" height="19" viewBox="0 0 18 19" fill="none" xmlns="http://www.w3.org/2000/svg">
<circle cx="9.00061" cy="9.5" r="9.00061" fill="#799DB2" fill-opacity="0.2"/>
<path d="M11.0012 10.4323C10.3606 10.4323 10.0526 10.7708 9.00122 10.7708C7.94988 10.7708 7.64408 10.4323 7.00122 10.4323C5.34497 10.4323 4.00122 11.7061 4.00122 13.276V13.8177C4.00122 14.3784 4.48113 14.8333 5.07265 14.8333H12.9298C13.5213 14.8333 14.0012 14.3784 14.0012 13.8177V13.276C14.0012 11.7061 12.6575 10.4323 11.0012 10.4323ZM12.9298 13.8177H5.07265V13.276C5.07265 12.2689 5.93872 11.4479 7.00122 11.4479C7.32711 11.4479 7.85613 11.7865 9.00122 11.7865C10.1552 11.7865 10.6731 11.4479 11.0012 11.4479C12.0637 11.4479 12.9298 12.2689 12.9298 13.276V13.8177ZM9.00122 10.0937C10.7758 10.0937 12.2155 8.729 12.2155 7.04687C12.2155 5.36475 10.7758 4 9.00122 4C7.22667 4 5.78693 5.36475 5.78693 7.04687C5.78693 8.729 7.22667 10.0937 9.00122 10.0937ZM9.00122 5.01562C10.182 5.01562 11.1441 5.92757 11.1441 7.04687C11.1441 8.16618 10.182 9.07812 9.00122 9.07812C7.82042 9.07812 6.85836 8.16618 6.85836 7.04687C6.85836 5.92757 7.82042 5.01562 9.00122 5.01562Z" fill="#505A5F"/>
</svg>
